<svg id="图层_1" data-name="图层 1" xmlns="http://www.w3.org/2000/svg" xmlns:xlink="http://www.w3.org/1999/xlink" viewBox="0 0 489 78"><defs><style>.cls-1,.cls-5{fill:none;}.cls-2{fill:#ffc533;fill-rule:evenodd;}.cls-3{fill:#fff;}.cls-4{clip-path:url(#clip-path);}.cls-5{stroke:#fff;stroke-miterlimit:10;stroke-width:0.5px;}</style><clipPath id="clip-path"><rect class="cls-1" x="37.5" y="-0.5" width="455" height="28"/></clipPath></defs><path class="cls-2" d="M13.69,8.83H25.12V68.42H13.69Z"/><path class="cls-3" d="M81.49,28.14H70.3L60.89,56.42,51.47,28.14H40.11L54.49,67.61H67.12Z"/><path class="cls-3" d="M91,28.14H80.25V67.61H91Z"/><path class="cls-3" d="M109.8,28.14H92.37V67.61H109.8c12.35,0,20.47-7.84,20.47-19.74S122.15,28.14,109.8,28.14ZM109.52,38c6.48,0,9.61,4.11,9.61,9.89s-3.13,9.9-9.61,9.9h-6.43V38Z"/><path class="cls-3" d="M161.13,58.08H141V52.41h18.72V42.88H141V37.67h20.13V28.14H130.29V67.61h30.84Z"/><path class="cls-3" d="M181.44,27.41c-12.2,0-20.86,8.68-20.86,20.46s8.66,20.47,20.86,20.47,20.87-8.68,20.87-20.47S193.65,27.41,181.44,27.41Zm0,10.26c5.75,0,9.73,4.17,9.73,10.2s-4,10.21-9.73,10.21-9.72-4.17-9.72-10.21S175.69,37.67,181.44,37.67Z"/><path class="cls-3" d="M241.88,67.61l-9.7-9.53,6.71-7.9-7-5.38-6,7.05-4.09-4c3.81-2.65,7.28-5.73,7.28-9.65,0-6.45-5.11-10.76-12.78-10.76s-12.82,4.34-12.82,10.76c0,3.47,1.41,5.95,4.17,8.94-3.52,2.71-6.46,6.12-6.46,10.57,0,6.23,4.82,10.66,13.34,10.66a18.54,18.54,0,0,0,11.11-3.75l3.13,3Zm-26.33-8.07c-2.31,0-3.69-1.12-3.69-3,0-1.07.79-2.14,2-3.24l5.27,5.13A7,7,0,0,1,215.55,59.54Zm-2.28-21.08c0-1.58,1.12-2.48,3-2.48s3,1,3,2.25-1.49,2.28-3.61,3.64C213.8,40.06,213.27,39.36,213.27,38.46Z"/><path class="cls-3" d="M260.06,27.41c-12.21,0-20.84,8.45-20.84,20.46s8.63,20.47,20.84,20.47c7.81,0,13.84-3.5,17.56-9.08l-8.79-6.14a10.21,10.21,0,0,1-8.91,5c-4.88,0-9.56-3.47-9.56-10.21,0-6,4.06-10.2,9.53-10.2a9.52,9.52,0,0,1,8.68,5l9.5-5.25C274.63,31.1,267.78,27.41,260.06,27.41Z"/><path class="cls-3" d="M297.29,27.41c-12.2,0-20.86,8.68-20.86,20.46s8.66,20.47,20.86,20.47,20.86-8.68,20.86-20.47S309.5,27.41,297.29,27.41Zm0,10.26c5.75,0,9.73,4.17,9.73,10.2s-4,10.21-9.73,10.21-9.72-4.17-9.72-10.21S291.54,37.67,297.29,37.67Z"/><path class="cls-3" d="M363.71,28.14H348.85L341,51.88,333,28.14H318.18V67.61h10.71V42.91l6.34,21h11.42l6.34-21v24.7h10.72Z"/><path class="cls-3" d="M375.86,28.14H365.14V67.61h10.72Z"/><path class="cls-3" d="M396.7,27.41c-12.21,0-20.84,8.45-20.84,20.46s8.63,20.47,20.84,20.47c7.8,0,13.84-3.5,17.56-9.08l-8.8-6.14a10.2,10.2,0,0,1-8.91,5c-4.87,0-9.55-3.47-9.55-10.21,0-6,4.06-10.2,9.53-10.2a9.53,9.53,0,0,1,8.68,5l9.5-5.25C411.27,31.1,404.42,27.41,396.7,27.41Z"/><path class="cls-3" d="M447.66,31.58A32,32,0,0,0,431,27.43c-9.48,0-15.82,5-16,12.61-.19,7,3.58,10.91,12.66,12.46l1.5.25C434,53.6,436.5,54,436.5,56s-2.12,2.74-5,2.74c-6,0-9.78-2.18-12.91-4.06l-5.24,8.74c4.51,3.21,10.94,4.9,18,4.9,8.41,0,16.83-3.69,16.83-13.67,0-6.06-4.14-10-12.29-11.56l-1.27-.26c-4-.78-8.06-1-8.06-3.24,0-1.77,2.2-2.56,5.08-2.56A23,23,0,0,1,443,40.35Z"/><g class="cls-4"><path class="cls-5" d="M90,9.57H78.46L68.77,37.84,59.08,9.57H47.39L62.19,49h13Z"/><path class="cls-5" d="M99.72,9.57h-11V49h11Z"/><path class="cls-5" d="M119.1,9.57H101.17V49H119.1c12.71,0,21.06-7.84,21.06-19.74S131.81,9.57,119.1,9.57Zm-.29,9.84c6.67,0,9.89,4.11,9.89,9.89s-3.22,9.9-9.89,9.9H112.2V19.41Z"/><path class="cls-5" d="M171.92,39.51H151.21V33.84h19.26V24.31H151.21V19.1h20.71V9.57H140.18V49h31.74Z"/><path class="cls-5" d="M192.82,8.83c-12.56,0-21.46,8.69-21.46,20.47s8.9,20.47,21.46,20.47,21.47-8.68,21.47-20.47S205.39,8.83,192.82,8.83Zm0,10.27c5.92,0,10,4.17,10,10.2s-4.09,10.21-10,10.21-10-4.18-10-10.21S186.91,19.1,192.82,19.1Z"/><path class="cls-5" d="M255,49l-10-9.53,6.91-7.9-7.25-5.38-6.18,7.05-4.21-4c3.92-2.65,7.49-5.72,7.49-9.64,0-6.45-5.26-10.77-13.15-10.77s-13.2,4.34-13.2,10.77c0,3.47,1.46,5.95,4.3,8.94-3.63,2.71-6.64,6.12-6.64,10.57,0,6.23,5,10.66,13.72,10.66A19.49,19.49,0,0,0,238.25,46l3.22,3ZM227.92,41c-2.38,0-3.8-1.13-3.8-3,0-1.07.81-2.14,2.09-3.24l5.42,5.13A7.36,7.36,0,0,1,227.92,41Zm-2.35-21.09c0-1.57,1.16-2.48,3.07-2.48s3.11,1.05,3.11,2.26-1.54,2.28-3.72,3.64C226.12,21.49,225.57,20.79,225.57,19.88Z"/><path class="cls-5" d="M273.72,8.83c-12.56,0-21.44,8.46-21.44,20.47s8.88,20.47,21.44,20.47c8,0,14.24-3.5,18.07-9.08l-9.05-6.15a10.59,10.59,0,0,1-9.17,5c-5,0-9.83-3.47-9.83-10.21,0-6,4.17-10.2,9.8-10.2a9.85,9.85,0,0,1,8.94,5l9.77-5.25C288.71,12.53,281.67,8.83,273.72,8.83Z"/><path class="cls-5" d="M312,8.83c-12.56,0-21.47,8.69-21.47,20.47S299.47,49.77,312,49.77,333.5,41.09,333.5,29.3,324.59,8.83,312,8.83Zm0,10.27c5.92,0,10,4.17,10,10.2S318,39.51,312,39.51s-10-4.18-10-10.21S306.11,19.1,312,19.1Z"/><path class="cls-5" d="M380.37,9.57H365.08L357,33.3,348.81,9.57H333.52V49h11V24.34l6.53,21h11.75l6.53-21V49h11Z"/><path class="cls-5" d="M392.87,9.57h-11V49h11Z"/><path class="cls-5" d="M414.31,8.83c-12.56,0-21.44,8.46-21.44,20.47s8.88,20.47,21.44,20.47c8,0,14.25-3.5,18.08-9.08l-9.06-6.15a10.56,10.56,0,0,1-9.16,5c-5,0-9.84-3.47-9.84-10.21,0-6,4.18-10.2,9.81-10.2a9.84,9.84,0,0,1,8.93,5l9.78-5.25C429.31,12.53,422.26,8.83,414.31,8.83Z"/><path class="cls-5" d="M466.75,13a33.65,33.65,0,0,0-17.14-4.15c-9.75,0-16.28,5.05-16.48,12.6-.2,7,3.69,10.91,13,12.46l1.53.26c5.05.84,7.58,1.21,7.58,3.27s-2.18,2.73-5.14,2.73c-6.18,0-10.07-2.17-13.29-4.06l-5.39,8.74c4.64,3.22,11.25,4.91,18.54,4.91,8.64,0,17.31-3.69,17.31-13.67,0-6.07-4.26-10-12.64-11.56l-1.31-.26c-4.15-.79-8.3-1-8.3-3.24,0-1.78,2.27-2.56,5.23-2.56A24.31,24.31,0,0,1,462,21.77Z"/></g></svg>